HIERARCHY
ROOT Hips
{
	OFFSET 0.000000 121.760803 0.000000
	CHANNELS 6 Xposition Yposition Zposition Xrotation Yrotation Zrotation 
	JOINT Spine
	{
		OFFSET 0.072000 7.257294 -0.789700
		CHANNELS 3 Xrotation Yrotation Zrotation
		JOINT Spine1
		{
			OFFSET 0.000000 12.508769 -0.658067
			CHANNELS 3 Xrotation Yrotation Zrotation
			JOINT Spine1_split
			{
				OFFSET 0.000000 12.508769 -0.658067
				CHANNELS 3 Xrotation Yrotation Zrotation
				JOINT Spine2
				{
					OFFSET 0.000000 12.508769 -0.658067
					CHANNELS 3 Xrotation Yrotation Zrotation
					JOINT Neck
					{
						OFFSET 0.000000 14.033295 7.520400
						CHANNELS 3 Xrotation Yrotation Zrotation
						JOINT Head
						{
							OFFSET 0.000000 8.198502 5.703100
							CHANNELS 3 Xrotation Yrotation Zrotation
							JOINT HeadTop_End
							{
								OFFSET 0.000000 17.760803 13.332701
								CHANNELS 3 Xrotation Yrotation Zrotation
								End Site
								{
									OFFSET 0.000000 0.000000 0.000000
								}
							}
						}
					}
					JOINT LeftShoulder
					{
						OFFSET 6.292450 5.785301 -0.669000
						CHANNELS 3 Xrotation Yrotation Zrotation
						JOINT LeftShoulder_split
						{
							OFFSET 6.292450 5.785301 -0.669000
							CHANNELS 3 Xrotation Yrotation Zrotation
							JOINT LeftArm
							{
								OFFSET 13.907140 -6.093903 1.965100
								CHANNELS 3 Xrotation Yrotation Zrotation
								JOINT LeftForeArm
								{
									OFFSET 34.140198 0.000000 0.000000
									CHANNELS 3 Xrotation Yrotation Zrotation
									JOINT LeftHand
									{
										OFFSET 40.960209 0.000000 0.000000
										CHANNELS 3 Xrotation Yrotation Zrotation
										JOINT LeftHandThumb1
										{
											OFFSET 10.006996 -7.170425 9.573125
											CHANNELS 3 Xrotation Yrotation Zrotation
											JOINT LeftHandThumb2
											{
												OFFSET 1.835007 -1.059448 1.059443
												CHANNELS 3 Xrotation Yrotation Zrotation
												JOINT LeftHandThumb3
												{
													OFFSET 2.112267 -1.219513 1.219518
													CHANNELS 3 Xrotation Yrotation Zrotation
													JOINT LeftHandThumb4
													{
														OFFSET 4.843811 -2.796570 2.796576
														CHANNELS 3 Xrotation Yrotation Zrotation
														End Site
														{
															OFFSET 0.000000 0.000000 0.000000
														}
													}
												}
											}
										}
										JOINT LeftHandIndex1
										{
											OFFSET 18.389847 -0.922348 4.596882
											CHANNELS 3 Xrotation Yrotation Zrotation
											JOINT LeftHandIndex2
											{
												OFFSET 4.711273 0.000000 0.000000
												CHANNELS 3 Xrotation Yrotation Zrotation
												JOINT LeftHandIndex3
												{
													OFFSET 2.886131 0.000000 0.000000
													CHANNELS 3 Xrotation Yrotation Zrotation
													JOINT LeftHandIndex4
													{
														OFFSET 6.145912 0.000000 0.000000
														CHANNELS 3 Xrotation Yrotation Zrotation
														End Site
														{
															OFFSET 0.000000 0.000000 0.000000
														}
													}
												}
											}
										}
										JOINT LeftHandMiddle1
										{
											OFFSET 18.013008 0.000000 0.000000
											CHANNELS 3 Xrotation Yrotation Zrotation
											JOINT LeftHandMiddle2
											{
												OFFSET 4.946693 0.000000 0.000000
												CHANNELS 3 Xrotation Yrotation Zrotation
												JOINT LeftHandMiddle3
												{
													OFFSET 3.342232 0.000000 0.000000
													CHANNELS 3 Xrotation Yrotation Zrotation
													JOINT LeftHandMiddle4
													{
														OFFSET 4.461754 0.000000 0.000000
														CHANNELS 3 Xrotation Yrotation Zrotation
														End Site
														{
															OFFSET 0.000000 0.000000 0.000000
														}
													}
												}
											}
										}
										JOINT LeftHandRing1
										{
											OFFSET 15.849892 -0.102921 -4.126150
											CHANNELS 3 Xrotation Yrotation Zrotation
											JOINT LeftHandRing2
											{
												OFFSET 3.527054 0.000000 0.000000
												CHANNELS 3 Xrotation Yrotation Zrotation
												JOINT LeftHandRing3
												{
													OFFSET 2.961098 0.000000 0.000000
													CHANNELS 3 Xrotation Yrotation Zrotation
													JOINT LeftHandRing4
													{
														OFFSET 4.927200 0.000000 0.000000
														CHANNELS 3 Xrotation Yrotation Zrotation
														End Site
														{
															OFFSET 0.000000 0.000000 0.000000
														}
													}
												}
											}
										}
										JOINT LeftHandPinky1
										{
											OFFSET 12.791824 -0.832031 -6.799156
											CHANNELS 3 Xrotation Yrotation Zrotation
											JOINT LeftHandPinky2
											{
												OFFSET 3.327133 0.000000 0.000000
												CHANNELS 3 Xrotation Yrotation Zrotation
												JOINT LeftHandPinky3
												{
													OFFSET 3.014900 0.000000 0.000000
													CHANNELS 3 Xrotation Yrotation Zrotation
													JOINT LeftHandPinky4
													{
														OFFSET 5.847786 0.000000 0.000000
														CHANNELS 3 Xrotation Yrotation Zrotation
														End Site
														{
															OFFSET 0.000000 0.000000 0.000000
														}
													}
												}
											}
										}
									}
								}
							}
						}
					}
					JOINT RightShoulder
					{
						OFFSET -6.292450 5.785301 -0.669000
						CHANNELS 3 Xrotation Yrotation Zrotation
						JOINT RightShoulder_split
						{
							OFFSET -6.292450 5.785301 -0.669000
							CHANNELS 3 Xrotation Yrotation Zrotation
							JOINT RightArm
							{
								OFFSET -13.907140 -6.093903 1.965100
								CHANNELS 3 Xrotation Yrotation Zrotation
								JOINT RightForeArm
								{
									OFFSET -34.140198 0.000000 0.000000
									CHANNELS 3 Xrotation Yrotation Zrotation
									JOINT RightHand
									{
										OFFSET -40.960209 0.000000 0.000000
										CHANNELS 3 Xrotation Yrotation Zrotation
										JOINT RightHandThumb1
										{
											OFFSET -10.007050 -7.170456 9.573117
											CHANNELS 3 Xrotation Yrotation Zrotation
											JOINT RightHandThumb2
											{
												OFFSET -1.835007 -1.059448 1.059443
												CHANNELS 3 Xrotation Yrotation Zrotation
												JOINT RightHandThumb3
												{
													OFFSET -2.112267 -1.219513 1.219518
													CHANNELS 3 Xrotation Yrotation Zrotation
													JOINT RightHandThumb4
													{
														OFFSET -4.843834 -2.796585 2.796590
														CHANNELS 3 Xrotation Yrotation Zrotation
														End Site
														{
															OFFSET 0.000000 0.000000 0.000000
														}
													}
												}
											}
										}
										JOINT RightHandIndex1
										{
											OFFSET -18.389870 -0.922424 4.596786
											CHANNELS 3 Xrotation Yrotation Zrotation
											JOINT RightHandIndex2
											{
												OFFSET -4.711273 0.000000 0.000000
												CHANNELS 3 Xrotation Yrotation Zrotation
												JOINT RightHandIndex3
												{
													OFFSET -2.886131 0.000000 0.000000
													CHANNELS 3 Xrotation Yrotation Zrotation
													JOINT RightHandIndex4
													{
														OFFSET -6.145920 0.000000 0.000000
														CHANNELS 3 Xrotation Yrotation Zrotation
														End Site
														{
															OFFSET 0.000000 0.000000 0.000000
														}
													}
												}
											}
										}
										JOINT RightHandMiddle1
										{
											OFFSET -18.013008 0.000000 0.000000
											CHANNELS 3 Xrotation Yrotation Zrotation
											JOINT RightHandMiddle2
											{
												OFFSET -4.946693 0.000000 0.000000
												CHANNELS 3 Xrotation Yrotation Zrotation
												JOINT RightHandMiddle3
												{
													OFFSET -3.342232 0.000000 0.000000
													CHANNELS 3 Xrotation Yrotation Zrotation
													JOINT RightHandMiddle4
													{
														OFFSET -4.461754 0.000000 0.000000
														CHANNELS 3 Xrotation Yrotation Zrotation
														End Site
														{
															OFFSET 0.000000 0.000000 0.000000
														}
													}
												}
											}
										}
										JOINT RightHandRing1
										{
											OFFSET -15.849876 -0.102936 -4.126237
											CHANNELS 3 Xrotation Yrotation Zrotation
											JOINT RightHandRing2
											{
												OFFSET -3.527054 0.000000 0.000000
												CHANNELS 3 Xrotation Yrotation Zrotation
												JOINT RightHandRing3
												{
													OFFSET -2.961098 0.000000 0.000000
													CHANNELS 3 Xrotation Yrotation Zrotation
													JOINT RightHandRing4
													{
														OFFSET -4.927200 0.000000 0.000000
														CHANNELS 3 Xrotation Yrotation Zrotation
														End Site
														{
															OFFSET 0.000000 0.000000 0.000000
														}
													}
												}
											}
										}
										JOINT RightHandPinky1
										{
											OFFSET -12.791786 -0.832077 -6.799222
											CHANNELS 3 Xrotation Yrotation Zrotation
											JOINT RightHandPinky2
											{
												OFFSET -3.327133 0.000000 0.000000
												CHANNELS 3 Xrotation Yrotation Zrotation
												JOINT RightHandPinky3
												{
													OFFSET -3.014900 0.000000 0.000000
													CHANNELS 3 Xrotation Yrotation Zrotation
													JOINT RightHandPinky4
													{
														OFFSET -5.847786 0.000000 0.000000
														CHANNELS 3 Xrotation Yrotation Zrotation
														End Site
														{
															OFFSET 0.000000 0.000000 0.000000
														}
													}
												}
											}
										}
									}
								}
							}
						}
					}
				}
			}
		}
	}
	JOINT LeftUpLeg
	{
		OFFSET 13.026900 -6.336304 -1.092800
		CHANNELS 3 Xrotation Yrotation Zrotation
		JOINT LeftLeg
		{
			OFFSET 0.524474 -46.096886 9.782700
			CHANNELS 3 Xrotation Yrotation Zrotation
			JOINT LeftFoot
			{
				OFFSET -0.524474 -53.427422 -12.948200
				CHANNELS 3 Xrotation Yrotation Zrotation
				JOINT LeftToeBase
				{
					OFFSET 0.192200 -14.009700 16.364100
					CHANNELS 3 Xrotation Yrotation Zrotation
					JOINT LeftToe_End
					{
						OFFSET -1.784700 -0.561700 9.474800
						CHANNELS 3 Xrotation Yrotation Zrotation
						End Site
						{
							OFFSET 0.000000 0.000000 0.000000
						}
					}
				}
			}
		}
	}
	JOINT RightUpLeg
	{
		OFFSET -12.883000 -6.336304 -1.092800
		CHANNELS 3 Xrotation Yrotation Zrotation
		JOINT RightLeg
		{
			OFFSET -0.524587 -46.096825 9.782800
			CHANNELS 3 Xrotation Yrotation Zrotation
			JOINT RightFoot
			{
				OFFSET 0.524587 -53.427383 -12.948300
				CHANNELS 3 Xrotation Yrotation Zrotation
				JOINT RightToeBase
				{
					OFFSET -0.192200 -14.009700 16.364100
					CHANNELS 3 Xrotation Yrotation Zrotation
					JOINT RightToe_End
					{
						OFFSET 1.784700 -0.561700 9.474800
						CHANNELS 3 Xrotation Yrotation Zrotation
						End Site
						{
							OFFSET 0.000000 0.000000 0.000000
						}
					}
				}
			}
		}
	}
}
MOTION
Frames: 4
Frame Time: 0.016667
1.097752 56.463615 -3.632731 0.645453 -176.265217 -9.203570 4.030304 4.182798 -1.967185 8.251960 6.771405 -4.731503 0.000000 0.000000 0.000000 8.251962 6.771406 -4.731517 -1.987046 28.311187 6.773749 5.084069 36.051822 -22.849326 -0.000001 0.000000 -0.000000 1.033491 -15.235096 -11.647772 0.000000 0.000000 0.000000 3.042447 -0.761207 -32.016375 40.133570 -33.388178 -1.908160 12.866397 10.638200 2.322271 -9.419890 -10.451160 8.422287 2.321133 6.714506 2.170919 0.000007 0.000009 -0.000003 0.000000 -0.000000 -0.000000 -1.239091 -9.024539 -4.969428 -0.126825 0.207666 -21.714389 -0.000004 -0.000006 -0.000005 -0.000001 -0.000001 0.000000 1.309902 -1.012396 -8.080148 -0.178457 -0.773454 -14.430115 0.000004 0.000003 0.000014 0.000003 -0.000001 0.000002 -0.365407 2.944773 -4.498892 -0.505477 -2.597477 -30.199490 0.000000 -0.000002 0.000004 0.000002 -0.000002 0.000001 0.029755 5.968243 0.715899 -0.699244 -5.770486 -39.699320 -0.000000 0.000015 0.000011 -0.000001 -0.000001 0.000001 3.185196 -18.297177 12.806537 0.000000 0.000000 0.000000 12.807465 -13.875010 59.330507 29.940797 40.956895 -3.738845 19.089487 -1.945246 12.311421 -7.852772 4.769975 -9.664446 -0.642366 -0.093870 -1.289334 -0.000006 -0.000001 -0.000000 -0.000001 0.000000 0.000001 -1.233005 0.595976 8.695202 0.120533 -1.119644 16.859803 0.000006 -0.000005 -0.000007 -0.000002 -0.000001 0.000002 -1.142341 -1.774154 0.545300 -0.357895 1.142264 22.116013 -0.000002 -0.000003 -0.000001 -0.000004 0.000001 -0.000001 1.909921 -0.146226 -2.803267 -0.619899 3.110105 28.344742 -0.000000 -0.000004 0.000003 0.000000 -0.000001 0.000001 4.769426 -2.279037 -7.778135 -1.320421 7.677256 37.620200 -0.000014 0.000015 0.000003 -0.000002 0.000002 0.000001 -88.758725 -22.855632 14.121477 113.077101 4.704830 3.023360 -18.102146 4.203073 -17.827379 -1.295535 1.229661 1.501218 0.000000 0.000003 0.000000 -62.909833 17.746571 -26.636035 103.368465 3.192955 -0.365126 -19.239431 -8.173027 31.599085 -9.240653 -3.038577 -0.168779 -0.000000 -0.000001 -0.000000 
1.095243 56.463043 -3.640228 0.622906 -176.269410 -9.205217 4.025092 4.180581 -1.966786 8.241339 6.766909 -4.730118 0.000000 0.000000 0.000000 8.241347 6.766909 -4.730118 -1.988032 28.342462 6.708602 5.079930 36.041167 -22.785392 -0.000001 0.000000 0.000000 1.032227 -15.314485 -11.643159 0.000000 0.000000 0.000000 3.086120 -0.688673 -32.029448 40.144560 -33.392651 -1.914897 12.845103 10.617004 2.348272 -9.419896 -10.451157 8.422285 2.321135 6.714507 2.170920 0.000008 0.000009 -0.000004 -0.000005 -0.000000 -0.000001 -1.239142 -9.024849 -4.949870 -0.126828 0.207667 -21.714392 0.000004 -0.000005 -0.000003 0.000000 -0.000001 -0.000001 1.310097 -1.010954 -8.062261 -0.178454 -0.773454 -14.430115 0.000001 0.000005 0.000012 -0.000000 0.000001 -0.000002 -0.365330 2.945766 -4.487031 -0.505482 -2.597476 -30.199494 -0.000002 -0.000001 0.000005 0.000002 -0.000002 0.000001 0.029737 5.969882 0.729938 -0.699247 -5.770486 -39.699317 0.000002 0.000014 0.000012 0.000001 0.000001 -0.000000 3.178408 -18.230236 12.777572 0.000000 0.000000 0.000000 12.845293 -13.905121 59.356680 29.929363 40.938689 -3.736753 19.065792 -1.958725 12.297333 -7.852778 4.769987 -9.664436 -0.642368 -0.093870 -1.289333 -0.000008 -0.000001 -0.000001 -0.000002 0.000001 0.000001 -1.233010 0.595985 8.695215 0.120535 -1.119641 16.859803 0.000006 -0.000002 -0.000009 0.000001 0.000001 -0.000002 -1.142358 -1.774142 0.545304 -0.357892 1.142267 22.116011 -0.000004 -0.000004 0.000000 0.000000 -0.000001 -0.000001 1.909923 -0.146214 -2.803232 -0.619904 3.110105 28.344742 -0.000000 -0.000004 0.000003 0.000004 -0.000002 -0.000000 4.769424 -2.279017 -7.778120 -1.320421 7.677261 37.620200 -0.000012 0.000014 0.000004 -0.000003 0.000000 0.000000 -88.777870 -22.856036 14.117146 113.079294 4.704042 3.023110 -18.108201 4.205583 -17.828682 -1.295524 1.229663 1.501233 -0.000000 -0.000001 -0.000000 -62.927762 17.744702 -26.653384 103.368418 3.194332 -0.364769 -19.241051 -8.164042 31.577631 -9.240662 -3.038570 -0.168784 -0.000000 -0.000002 -0.000000 
1.087389 56.463516 -3.647595 0.605606 -176.259916 -9.206498 4.021982 4.178841 -1.966057 8.234950 6.762122 -4.728770 0.000000 0.000000 0.000000 8.234947 6.762116 -4.728762 -1.961536 28.352930 6.666011 5.081367 36.036669 -22.765785 0.000002 -0.000000 -0.000000 1.018277 -15.384837 -11.671192 0.000000 0.000000 0.000000 3.130081 -0.613958 -31.998439 40.157042 -33.422431 -1.934982 12.833475 10.604162 2.361222 -9.418931 -10.451633 8.419011 2.321137 6.714507 2.170920 0.000007 0.000009 -0.000004 0.000001 0.000001 -0.000000 -1.238330 -9.020201 -4.898274 -0.126829 0.207666 -21.714391 0.000003 -0.000006 -0.000000 -0.000002 0.000002 -0.000001 1.310626 -1.007231 -8.016518 -0.178451 -0.773453 -14.430117 0.000005 0.000005 0.000011 0.000002 -0.000000 0.000002 -0.365113 2.948513 -4.454902 -0.505475 -2.597476 -30.199494 -0.000005 0.000001 0.000001 0.000001 -0.000001 -0.000000 0.035306 5.973099 0.766551 -0.699246 -5.770485 -39.699317 -0.000003 0.000012 0.000009 -0.000004 0.000000 0.000001 3.169457 -18.205178 12.731741 0.000000 0.000000 0.000000 12.862357 -13.921446 59.407667 29.931064 40.882353 -3.744472 19.093901 -1.984756 12.297558 -7.852776 4.769971 -9.664456 -0.642366 -0.093872 -1.289334 -0.000011 -0.000000 -0.000002 0.000004 0.000000 -0.000000 -1.233014 0.595991 8.695218 0.120536 -1.119640 16.859801 0.000010 -0.000004 -0.000006 -0.000000 0.000001 -0.000001 -1.142361 -1.774142 0.545294 -0.357893 1.142265 22.116009 -0.000001 -0.000002 -0.000001 0.000001 0.000001 -0.000000 1.909930 -0.146224 -2.803248 -0.619898 3.110106 28.344745 0.000002 -0.000004 0.000002 0.000002 -0.000001 -0.000001 4.769419 -2.279028 -7.778130 -1.320421 7.677260 37.620197 -0.000012 0.000015 0.000006 -0.000003 -0.000001 0.000001 -88.800382 -22.844898 14.110797 113.081466 4.704238 3.023091 -18.112767 4.201740 -17.816724 -1.295535 1.229650 1.501242 -0.000000 0.000001 -0.000000 -62.923705 17.733118 -26.672536 103.367557 3.192242 -0.365406 -19.263486 -8.165892 31.564999 -9.245048 -3.038569 -0.169233 -0.000000 0.000001 0.000000 
1.080645 56.464172 -3.655334 0.588505 -176.251379 -9.207888 4.018116 4.178253 -1.963503 8.227049 6.760015 -4.723985 0.000000 0.000000 0.000000 8.227049 6.760016 -4.723987 -1.937315 28.365919 6.632020 5.105502 36.028278 -22.760303 -0.000001 0.000000 -0.000000 1.010112 -15.419010 -11.688384 0.000000 0.000000 0.000000 3.153015 -0.589270 -31.984659 40.162656 -33.418077 -1.949291 12.827814 10.613315 2.381289 -9.417398 -10.452403 8.413798 2.321136 6.714505 2.170918 0.000009 0.000010 -0.000004 0.000003 0.000000 0.000000 -1.237252 -9.013928 -4.828708 -0.126829 0.207666 -21.714391 0.000002 -0.000003 -0.000003 0.000002 -0.000001 0.000000 1.311322 -1.002222 -7.954888 -0.178453 -0.773453 -14.430117 0.000004 0.000004 0.000011 -0.000000 0.000001 -0.000001 -0.360611 2.951163 -4.408618 -0.505478 -2.597476 -30.199494 -0.000005 0.000001 0.000005 0.000004 -0.000002 -0.000000 0.043674 5.977970 0.821836 -0.699241 -5.770485 -39.699320 0.000001 0.000015 0.000012 0.000002 -0.000001 0.000003 3.165848 -18.194355 12.713014 0.000000 0.000000 0.000000 12.873432 -13.941515 59.432686 29.941490 40.850952 -3.760532 19.119779 -2.010016 12.308825 -7.852780 4.769954 -9.664444 -0.642361 -0.093870 -1.289332 -0.000005 -0.000002 -0.000002 0.000001 0.000001 0.000001 -1.233010 0.595972 8.695221 0.120535 -1.119643 16.859799 0.000006 -0.000004 -0.000008 0.000002 -0.000003 0.000001 -1.142367 -1.774155 0.545297 -0.357895 1.142263 22.116011 0.000003 -0.000003 -0.000001 -0.000002 -0.000000 -0.000001 1.909920 -0.146245 -2.803248 -0.619902 3.110105 28.344745 0.000000 -0.000002 0.000002 0.000003 0.000000 -0.000000 4.769421 -2.279052 -7.778121 -1.320420 7.677260 37.620200 -0.000010 0.000015 0.000004 -0.000001 0.000001 -0.000003 -88.819254 -22.833275 14.105426 113.084990 4.705198 3.022861 -18.121761 4.198207 -17.805362 -1.295547 1.229675 1.501226 -0.000000 -0.000001 -0.000000 -62.920645 17.723212 -26.689555 103.366942 3.189333 -0.365574 -19.282567 -8.167576 31.554531 -9.257412 -3.043254 -0.171274 -0.000000 0.000002 0.000000 
